# xmcd
#
# Track frame offsets:
#	150
#	27301
#	48928
#	72515
#	95916
#	117701
#	138912
#	168347
#	188597
#	212210
#	235373
#
# Disc length: 3476 seconds
#
# Revision: 0
# Processed by: cddbd v1.5.2PL0 Copyright (c) Steve Scherf et al.
# Submitted via: EasyCDDAExtractor 2010.6.0.0
#
DISCID=a40d920b
DTITLE=Tranh-Sao-Bau-Nhi - nhac hoa tau Minh Vy - Nhung Tinh Khuc Que Huong
DYEAR=2010
DGENRE=Instrumental
TTITLE0=noi buon me toi
TTITLE1=minh oi
TTITLE2=ngay khong em
TTITLE3=duong ve mien trung
TTITLE4=me toi ruoc dau
TTITLE5=que toi
TTITLE6=anh ve mien tay
TTITLE7=giang huong
TTITLE8=doi cho minh en
TTITLE9=tui no
TTITLE10=nguoi phuong xa
EXTD=
EXTT0=
EXTT1=
EXTT2=
EXTT3=
EXTT4=
EXTT5=
EXTT6=
EXTT7=
EXTT8=
EXTT9=
EXTT10=
PLAYORDER=
